<?xml version="1.0" standalone="no"?><!DOCTYPE svg PUBLIC "-//W3C//DTD SVG 1.1//EN" "http://www.w3.org/Graphics/SVG/1.1/DTD/svg11.dtd"><svg t="1593266341466" class="icon" viewBox="0 0 1024 1024" version="1.1" xmlns="http://www.w3.org/2000/svg" p-id="1280" xmlns:xlink="http://www.w3.org/1999/xlink" width="200" height="200"><defs><style type="text/css"></style></defs><path d="M513.28 871.68c-31.36 0-62.72-12.16-86.4-35.84l-231.04-230.4c-92.8-92.8-92.8-243.84 0-336.64 44.8-44.8 104.96-69.76 168.32-69.76 55.04 0 106.88 18.56 149.12 52.48 43.52-35.2 96.64-53.12 153.6-52.48 65.28 1.28 125.44 28.16 170.24 76.16 86.4 92.8 81.92 242.56-9.6 334.08l-227.2 227.2c-23.68 23.68-55.04 35.2-87.04 35.2zM364.16 262.4c-46.72 0-90.24 17.92-122.88 51.2-32.64 32.64-51.2 76.8-51.2 122.88s17.92 90.24 51.2 123.52l231.04 231.04c23.04 23.04 60.16 23.04 83.2 0L782.08 563.2c67.2-67.2 71.04-177.28 7.68-245.12-32.64-35.2-76.8-55.04-124.8-55.68-48-0.64-92.8 17.28-126.08 51.2l-3.2 3.2c-5.76 5.76-14.08 9.6-22.4 9.6-8.32 0-16.64-3.2-22.4-9.6l-3.2-3.2c-32.64-32.64-76.8-51.2-123.52-51.2z" fill="#515151" p-id="1281"></path></svg>